<svg width="551" height="48" viewBox="0 0 551 48" fill="none" xmlns="http://www.w3.org/2000/svg">
<path d="M63.3954 43.113C60.4772 42.2658 58.132 41.1649 56.3599 39.806L59.4663 32.9097C61.1607 34.1539 63.1785 35.1525 65.5113 35.9056C67.8483 36.6587 70.1812 37.0352 72.5182 37.0352C75.1171 37.0352 77.0407 36.6505 78.2809 35.877C79.5251 35.1075 80.1472 34.0802 80.1472 32.7992C80.1472 31.8578 79.7788 31.0761 79.0462 30.454C78.3136 29.8319 77.3682 29.3326 76.2222 28.956C75.0721 28.5795 73.5168 28.1661 71.5605 27.7118C68.5441 26.9956 66.0802 26.2794 64.1566 25.5631C62.2371 24.8469 60.5877 23.6968 59.2125 22.117C57.8374 20.5331 57.1498 18.4253 57.1498 15.7895C57.1498 13.4935 57.7719 11.4102 59.0161 9.54392C60.2603 7.67761 62.1348 6.20011 64.6396 5.10733C67.1444 4.01456 70.2058 3.47021 73.8238 3.47021C76.3491 3.47021 78.817 3.77308 81.2277 4.37473C83.6383 4.97637 85.7502 5.84404 87.5551 6.97365L84.7311 13.9232C81.0762 11.8523 77.4214 10.8168 73.7665 10.8168C71.2044 10.8168 69.3095 11.2302 68.0857 12.061C66.862 12.8918 66.2481 13.9805 66.2481 15.3393C66.2481 16.694 66.9561 17.705 68.3681 18.3639C69.7801 19.0228 71.937 19.6736 74.8388 20.3121C77.8511 21.0283 80.3191 21.7445 82.2427 22.4608C84.1622 23.177 85.8116 24.3066 87.1868 25.8496C88.562 27.3967 89.2495 29.4881 89.2495 32.1239C89.2495 34.3831 88.6193 36.4459 87.3587 38.3122C86.094 40.1785 84.2031 41.656 81.6779 42.7488C79.1526 43.8415 76.083 44.3859 72.465 44.3859C69.3381 44.3818 66.3135 43.9602 63.3954 43.113Z" fill="#231F20"/>
<path d="M121.774 5.89869C124.352 7.06513 126.341 8.72272 127.737 10.8714C129.128 13.0202 129.828 15.5618 129.828 18.5004C129.828 21.4022 129.132 23.9356 127.737 26.1007C126.341 28.2658 124.356 29.9234 121.774 31.0735C119.191 32.2235 116.15 32.7965 112.647 32.7965H104.678V43.7038H95.5225V4.14697H112.647C116.15 4.14697 119.191 4.73224 121.774 5.89869ZM118.413 23.5591C119.846 22.3722 120.562 20.686 120.562 18.5004C120.562 16.278 119.846 14.5713 118.413 13.3844C116.981 12.1975 114.89 11.604 112.139 11.604H104.678V25.3354H112.139C114.89 25.3395 116.981 24.746 118.413 23.5591Z" fill="#231F20"/>
<path d="M161.527 43.7068L153.898 32.6849H153.444H145.475V43.7068H136.32V4.1499H153.444C156.947 4.1499 159.988 4.73517 162.571 5.90162C165.149 7.06806 167.139 8.72565 168.534 10.8744C169.926 13.0231 170.626 15.5647 170.626 18.5033C170.626 21.442 169.918 23.9754 168.506 26.1037C167.094 28.2319 165.088 29.8608 162.485 30.9904L171.358 43.7068H161.527ZM159.211 13.3873C157.778 12.2004 155.687 11.607 152.937 11.607H145.475V25.3956H152.937C155.687 25.3956 157.778 24.794 159.211 23.5866C160.643 22.3833 161.36 20.6848 161.36 18.4992C161.355 16.2769 160.639 14.5742 159.211 13.3873Z" fill="#231F20"/>
<path d="M185.906 41.7256C182.607 39.9534 180.028 37.5141 178.162 34.4076C176.296 31.3012 175.367 27.806 175.367 23.926C175.367 20.046 176.3 16.5508 178.162 13.4444C180.028 10.3379 182.607 7.89862 185.906 6.12644C189.2 4.35426 192.904 3.47021 197.009 3.47021C201.114 3.47021 204.806 4.35426 208.084 6.12644C211.363 7.89862 213.941 10.3379 215.828 13.4444C217.711 16.5508 218.652 20.046 218.652 23.926C218.652 27.806 217.711 31.3012 215.828 34.4076C213.945 37.5141 211.363 39.9534 208.084 41.7256C204.806 43.4977 201.114 44.3818 197.009 44.3818C192.904 44.3818 189.204 43.4977 185.906 41.7256ZM203.341 34.9724C205.224 33.9001 206.705 32.4022 207.778 30.4786C208.85 28.559 209.39 26.3735 209.39 23.9219C209.39 21.4744 208.854 19.2889 207.778 17.3653C206.705 15.4457 205.224 13.9478 203.341 12.8714C201.458 11.7991 199.346 11.2588 197.013 11.2588C194.677 11.2588 192.569 11.795 190.686 12.8714C188.803 13.9437 187.322 15.4416 186.249 17.3653C185.177 19.2848 184.637 21.4703 184.637 23.9219C184.637 26.3694 185.173 28.5549 186.249 30.4786C187.322 32.4022 188.799 33.9001 190.686 34.9724C192.569 36.0448 194.681 36.5809 197.013 36.5809C199.346 36.585 201.458 36.0489 203.341 34.9724Z" fill="#231F20"/>
<path d="M229.932 39.6929C226.785 36.566 225.213 32.1008 225.213 26.3013V4.14697H234.369V25.9616C234.369 33.0462 237.308 36.5864 243.185 36.5864C246.046 36.5864 248.231 35.7311 249.741 34.0162C251.248 32.3013 252.001 29.6164 252.001 25.9616V4.14697H261.042V26.3013C261.042 32.1048 259.47 36.566 256.323 39.6929C253.175 42.8198 248.78 44.3832 243.128 44.3832C237.475 44.3832 233.076 42.8239 229.932 39.6929Z" fill="#231F20"/>
<path d="M277.599 11.6081H264.94V4.14697H299.414V11.6081H286.755V43.7079H277.599V11.6081Z" fill="#231F20"/>
<path d="M322.581 29.6901V43.7038H313.426V29.5755L298.11 4.14697H307.831L318.398 21.7214L328.966 4.14697H337.95L322.581 29.6901Z" fill="#231F20"/>
<path d="M346.004 42.6317C343.311 41.6903 341.228 40.4461 339.759 38.9031L341.396 35.6821C342.828 37.1146 344.732 38.2729 347.105 39.1569C349.479 40.0409 351.927 40.483 354.452 40.483C357.992 40.483 360.648 39.8322 362.421 38.5348C364.193 37.2374 365.077 35.5511 365.077 33.4761C365.077 31.8922 364.598 30.6316 363.636 29.6903C362.674 28.7489 361.5 28.0245 360.104 27.517C358.708 27.0095 356.768 26.4529 354.284 25.8512C351.309 25.0981 348.935 24.3737 347.163 23.6739C345.39 22.9781 343.876 21.914 342.611 20.4815C341.351 19.049 340.721 17.109 340.721 14.6615C340.721 12.6642 341.249 10.847 342.3 9.20992C343.352 7.5728 344.977 6.26311 347.163 5.28084C349.348 4.30266 352.062 3.81152 355.299 3.81152C357.558 3.81152 359.773 4.12258 361.938 4.74468C364.103 5.36678 365.977 6.22218 367.561 7.31496L366.149 10.6506C364.492 9.55781 362.719 8.73925 360.837 8.19082C358.954 7.64647 357.108 7.37226 355.299 7.37226C351.833 7.37226 349.225 8.04347 347.474 9.37772C345.722 10.7161 344.846 12.4391 344.846 14.5469C344.846 16.1308 345.325 17.3996 346.287 18.3614C347.249 19.3232 348.452 20.0558 349.905 20.5674C351.354 21.0749 353.306 21.6316 355.753 22.2332C358.655 22.9494 361 23.6575 362.789 24.3533C364.577 25.049 366.096 26.105 367.34 27.517C368.584 28.929 369.206 30.8403 369.206 33.251C369.206 35.2483 368.67 37.0655 367.598 38.7026C366.522 40.3397 364.876 41.6412 362.654 42.603C360.431 43.5648 357.698 44.0437 354.46 44.0437C351.513 44.0478 348.697 43.5771 346.004 42.6317Z" fill="#231F20"/>
<path d="M384.938 41.4161C381.754 39.6644 379.27 37.2619 377.481 34.2128C375.693 31.1596 374.796 27.7339 374.796 23.9276C374.796 20.1213 375.693 16.6956 377.481 13.6424C379.27 10.5892 381.758 8.19081 384.938 6.4391C388.123 4.68738 391.671 3.81152 395.592 3.81152C399.513 3.81152 403.041 4.6792 406.188 6.41045C409.331 8.1417 411.812 10.5442 413.621 13.6179C415.43 16.6875 416.334 20.1254 416.334 23.9317C416.334 27.738 415.43 31.1759 413.621 34.2455C411.812 37.3151 409.336 39.7176 406.188 41.453C403.041 43.1842 399.513 44.0519 395.592 44.0519C391.671 44.0519 388.123 43.1719 384.938 41.4161ZM404.068 38.1992C406.593 36.7872 408.57 34.8267 410.003 32.3219C411.435 29.8171 412.151 27.0177 412.151 23.9317C412.151 20.8416 411.435 18.0463 410.003 15.5415C408.57 13.0367 406.593 11.0762 404.068 9.66422C401.543 8.25221 398.719 7.54415 395.592 7.54415C392.465 7.54415 389.629 8.25221 387.087 9.66422C384.545 11.0762 382.548 13.0367 381.095 15.5415C379.642 18.0463 378.918 20.8457 378.918 23.9317C378.918 27.0218 379.642 29.8171 381.095 32.3219C382.544 34.8267 384.541 36.7872 387.087 38.1992C389.629 39.6112 392.465 40.3193 395.592 40.3193C398.719 40.3152 401.547 39.6071 404.068 38.1992Z" fill="#231F20"/>
<path d="M432.298 41.4432C429.151 39.7119 426.683 37.3095 424.894 34.2358C423.106 31.1662 422.209 27.7282 422.209 23.9219C422.209 20.1156 423.106 16.6777 424.894 13.6081C426.683 10.5385 429.159 8.13603 432.327 6.40068C435.491 4.66943 439.031 3.80176 442.952 3.80176C445.89 3.80176 448.604 4.29289 451.088 5.27107C453.573 6.24925 455.684 7.68173 457.416 9.56441L454.759 12.2206C451.669 9.09374 447.769 7.53029 443.062 7.53029C439.935 7.53029 437.091 8.24653 434.529 9.67901C431.967 11.1115 429.961 13.0719 428.508 15.5563C427.055 18.0406 426.331 20.8319 426.331 23.9219C426.331 27.012 427.055 29.7992 428.508 32.2835C429.957 34.7678 431.963 36.7283 434.529 38.1608C437.091 39.5932 439.935 40.3095 443.062 40.3095C447.81 40.3095 451.71 38.7297 454.759 35.5618L457.416 38.2181C455.684 40.1048 453.564 41.5414 451.06 42.5401C448.555 43.5387 445.833 44.038 442.894 44.038C438.974 44.0462 435.441 43.1785 432.298 41.4432Z" fill="#231F20"/>
<path d="M466.345 4.14697H470.528V43.7038H466.345V4.14697Z" fill="#231F20"/>
<path d="M508.217 33.1392H486.177L481.43 43.7068H477.079L495.161 4.1499H499.287L517.373 43.7068H512.965L508.217 33.1392ZM506.69 29.7462L497.195 8.49645L487.7 29.7462H506.69Z" fill="#231F20"/>
<path d="M523.927 4.14697H528.11V40.0899H550.26V43.7079H523.927V4.14697Z" fill="#231F20"/>
<path fill-rule="evenodd" clip-rule="evenodd" d="M15.1751 27.7414C14.9858 27.5386 14.997 27.2209 15.2021 27.0316C15.4049 26.8423 15.7227 26.8536 15.912 27.0564C16.1013 27.2592 16.09 27.5769 15.8849 27.7662C15.6799 27.9555 15.3621 27.9443 15.1751 27.7414ZM12.3289 27.4462C12.9553 28.8412 14.0055 30.0648 15.4838 31.1172C15.797 31.3403 16.1306 31.5567 16.4821 31.764C16.7097 31.8992 16.9463 32.0299 17.1897 32.1583L18.5103 30.9302L16.2275 28.4738C15.7204 28.7984 15.0353 28.724 14.6117 28.2665C14.1339 27.7527 14.1632 26.946 14.677 26.4682C15.1908 25.9905 15.9976 26.0198 16.4753 26.5336C16.9013 26.991 16.9238 27.6784 16.5632 28.1606L18.846 30.6169L20.1689 29.3888C20.0584 29.1364 19.9458 28.893 19.8263 28.6541C19.6461 28.2868 19.4545 27.9398 19.2539 27.6107C18.312 26.0603 17.1694 24.9223 15.8241 24.1967L12.3289 27.4462ZM17.5773 32.3567L18.7897 31.2299L19.1255 30.9167L20.3379 29.7899C20.428 30.0085 20.5137 30.2316 20.597 30.4614L18.2308 32.6609C18.0055 32.564 17.7891 32.4626 17.5773 32.3567ZM20.9666 30.7116L21.1018 30.5854C20.6173 29.2491 20.0359 27.9398 19.2246 26.7679L20.597 27.1893L23.281 32.2598L20.9666 30.7116ZM15.3982 23.9848C14.2849 23.471 13.0432 23.2209 11.6708 23.2344C11.5559 24.6023 11.7159 25.8575 12.1463 27.0045L15.3982 23.9848ZM18.4494 33.0507L19.8241 35.4733L14.9655 32.4243L14.6455 31.0248C15.7632 31.9262 17.0117 32.591 18.3165 33.1769L18.4494 33.0507ZM20.25 34.3555L24.8449 37.4113L22.1339 32.6045L20.3108 31.3223L19.103 32.4445L20.25 34.3555Z" fill="black"/>
<path fill-rule="evenodd" clip-rule="evenodd" d="M25.7262 0C21.6541 0 17.8208 1.0231 14.4608 2.81014C12.3651 3.08056 10.4879 3.57408 8.85183 4.2862C6.21521 5.43549 4.21183 7.01972 2.89577 8.9938C1.57746 10.9701 0.910422 13.2056 0.910422 15.6372C0.910422 18.4383 1.65859 20.7166 3.13014 22.4113C4.58366 24.0834 6.35042 25.3138 8.38084 26.0687C9.24845 26.3932 10.2287 26.7155 11.3172 27.0423C11.2158 26.7448 11.1301 26.4406 11.0625 26.1296C10.1814 25.8614 9.37915 25.5887 8.65802 25.3206C6.75605 24.6107 5.09746 23.4546 3.73408 21.8862C2.39099 20.3425 1.71042 18.2377 1.71042 15.6372C1.71042 13.3656 2.33465 11.2789 3.56056 9.43549C4.79098 7.58986 6.67943 6.10479 9.17183 5.01634C11.689 3.92113 14.8124 3.36225 18.4608 3.36225C21.0118 3.36225 23.5403 3.67099 25.9808 4.28169C28.2862 4.85859 30.3391 5.68338 32.0901 6.73127L29.4828 13.1515C25.8073 11.1414 22.0822 10.1228 18.4045 10.1228C15.7003 10.1228 13.6608 10.5758 12.338 11.4704C10.9701 12.3989 10.2738 13.6451 10.2738 15.173C10.2738 16.7301 11.0851 17.8975 12.6851 18.6434C14.1566 19.333 16.4237 20.0158 19.4163 20.6761C22.4834 21.4062 25.0276 22.1454 26.9859 22.871C28.8901 23.5808 30.5487 24.7189 31.9144 26.249C32.0631 26.418 32.2028 26.5938 32.3358 26.7763C32.2028 26.8868 32.0698 27.0062 31.9369 27.1392C31.8039 27.2721 31.6822 27.4141 31.5696 27.5606C30.8304 27.1144 29.7893 27.2699 29.0727 27.9865C28.3786 28.6851 28.2186 29.6946 28.6242 30.427C27.3127 31.1662 26.6591 32.6017 26.9656 34.0868C25.9966 34.4901 25.3927 35.3961 25.1696 36.3561C25.0614 36.809 25.0411 37.271 25.1065 37.6992C24.7211 37.6428 24.3087 37.6563 23.9053 37.7375C22.8958 37.9403 21.9222 38.56 21.5053 39.5763C20.018 39.2766 18.5848 39.9392 17.8524 41.253C17.1155 40.8496 16.1082 41.0163 15.4141 41.7127C14.6997 42.4293 14.5487 43.4749 14.9994 44.2118C14.8597 44.32 14.7245 44.4372 14.5983 44.5634C12.2884 44.3966 10.0259 43.9955 7.8445 43.3623C5.03887 42.5465 2.73352 41.4896 0.991549 40.2163L3.85803 33.8569C5.54817 35.0265 7.54253 35.9865 9.79155 36.7121C12.2208 37.4941 14.6862 37.893 17.1222 37.893C19.5448 37.893 21.3814 37.5797 22.711 36.942L21.9155 36.4146C20.7324 36.8676 19.1256 37.0952 17.1222 37.0952C14.7696 37.0952 12.3853 36.7099 10.0349 35.9527C7.68676 35.1955 5.63155 34.1769 3.92789 32.9285L3.53127 32.6377L0 40.4665L0.250141 40.658C2.10028 42.0755 4.57915 43.2451 7.61915 44.1262C8.77971 44.462 9.96281 44.7369 11.1639 44.942C12.3628 45.1515 13.582 45.2935 14.8124 45.3746C16.7662 46.3752 18.8755 47.1166 21.093 47.5516C22.5915 47.8445 24.1375 48 25.7239 48C38.9814 48 49.7262 37.253 49.7262 23.9977C49.7284 10.7448 38.9814 0 25.7262 0ZM15.982 43.4006C16.2975 42.4135 17.0704 42.1183 17.8163 42.4023C17.0682 42.258 16.4237 42.6344 15.982 43.4006ZM18.2107 44.6355C18.4203 44.5972 18.6321 44.5882 18.8507 44.6085C18.6389 44.6197 18.4248 44.6287 18.2107 44.6355ZM20.2682 44.2231C20.5837 43.2361 21.3566 42.9408 22.1025 43.2248C21.3544 43.0806 20.7099 43.4546 20.2682 44.2231ZM18.7651 43.049C19.3397 41.2485 20.7482 40.7076 22.1115 41.2282C20.7459 40.9623 19.5696 41.6451 18.7651 43.049ZM24 43.4862C24.3155 42.4992 25.0884 42.2039 25.8321 42.4901C25.0862 42.3459 24.4394 42.72 24 43.4862ZM22.8913 41.7577C23.4659 39.9572 24.8766 39.4141 26.2377 39.9369C24.8744 39.671 23.6958 40.3561 22.8913 41.7577ZM30.7606 28.5521C29.9966 28.9938 29.6248 29.6428 29.7713 30.3887C29.4828 29.6451 29.7758 28.8699 30.7606 28.5521ZM27.3465 38.8259C26.8191 37.4648 27.3532 36.0518 29.1493 35.4682C27.7544 36.2794 27.0738 37.4603 27.3465 38.8259ZM28.6175 34.6907C28.0901 33.3296 28.6242 31.9166 30.4203 31.333C29.0253 32.1442 28.3448 33.3273 28.6175 34.6907ZM29.8997 38.4045C29.6113 37.6586 29.902 36.8856 30.8867 36.5656C30.1206 37.0096 29.7487 37.6586 29.8997 38.4045ZM30.6141 34.6704C30.3256 33.9245 30.6186 33.1515 31.6034 32.8315C30.8372 33.2755 30.4676 33.9245 30.6141 34.6704ZM32.5318 27.8873L32.5498 28.0316C32.3606 28.1555 32.1825 28.302 32.018 28.4777C32.169 28.2501 32.3403 28.0518 32.5318 27.8873ZM32.16 32.1668C31.7972 31.2293 31.9369 30.267 32.649 29.5685C32.649 29.5977 32.6558 29.8479 32.658 29.938C32.1848 30.587 31.9977 31.3487 32.16 32.1668ZM24.6377 35.4163C25.1245 34.7583 25.3679 33.9989 25.3679 33.138C25.3679 32.0496 24.9397 31.1346 24.0924 30.4203C23.6935 30.0845 23.2383 29.778 22.7268 29.5076L23.4952 30.9589C23.5222 30.9814 23.5515 31.0039 23.5763 31.0265C24.2434 31.5921 24.5679 32.2817 24.5679 33.1358C24.5679 33.6879 24.4439 34.1859 24.1915 34.6299L24.6377 35.4163Z" fill="url(#paint0_linear_26_27800)"/>
<defs>
<linearGradient id="paint0_linear_26_27800" x1="8.38554" y1="6.50602" x2="38.8825" y2="43.5837" gradientUnits="userSpaceOnUse">
<stop stop-color="#293445"/>
<stop offset="1" stop-color="#2A3647"/>
</linearGradient>
</defs>
</svg>
