<svg width="1499" height="157" viewBox="0 0 1499 157" fill="none" xmlns="http://www.w3.org/2000/svg">
<path d="M122.304 8.54545V154H95.7415L32.4602 62.4517H31.3949V154H0.642045V8.54545H27.6307L90.4148 100.023H91.6932V8.54545H122.304ZM147.144 154V44.9091H177.4V154H147.144ZM162.343 30.8466C157.845 30.8466 153.986 29.3551 150.766 26.3722C147.594 23.3419 146.008 19.7197 146.008 15.5057C146.008 11.339 147.594 7.7642 150.766 4.78125C153.986 1.75094 157.845 0.235788 162.343 0.235788C166.841 0.235788 170.676 1.75094 173.849 4.78125C177.068 7.7642 178.678 11.339 178.678 15.5057C178.678 19.7197 177.068 23.3419 173.849 26.3722C170.676 29.3551 166.841 30.8466 162.343 30.8466ZM292.403 76.017L264.705 77.7216C264.231 75.3542 263.213 73.2235 261.651 71.3295C260.088 69.3883 258.028 67.8494 255.472 66.7131C252.962 65.5294 249.955 64.9375 246.452 64.9375C241.764 64.9375 237.811 65.9318 234.591 67.9205C231.371 69.8617 229.761 72.4659 229.761 75.733C229.761 78.3371 230.803 80.5388 232.886 82.3381C234.97 84.1373 238.545 85.5814 243.611 86.6705L263.355 90.6477C273.961 92.8258 281.868 96.3295 287.077 101.159C292.285 105.989 294.889 112.333 294.889 120.193C294.889 127.343 292.782 133.616 288.568 139.014C284.402 144.412 278.672 148.626 271.381 151.656C264.136 154.639 255.779 156.131 246.31 156.131C231.868 156.131 220.363 153.124 211.793 147.111C203.27 141.05 198.275 132.812 196.807 122.395L226.565 120.832C227.465 125.236 229.643 128.598 233.099 130.918C236.556 133.19 240.983 134.327 246.381 134.327C251.684 134.327 255.945 133.309 259.165 131.273C262.432 129.189 264.089 126.514 264.136 123.247C264.089 120.501 262.929 118.252 260.656 116.5C258.384 114.701 254.88 113.328 250.145 112.381L231.253 108.616C220.599 106.486 212.669 102.793 207.46 97.5369C202.299 92.2812 199.719 85.5814 199.719 77.4375C199.719 70.4299 201.613 64.393 205.401 59.3267C209.236 54.2604 214.61 50.3542 221.523 47.608C228.483 44.8617 236.627 43.4886 245.955 43.4886C259.733 43.4886 270.576 46.4006 278.483 52.2244C286.438 58.0483 291.078 65.9792 292.403 76.017ZM344.197 90.9318V154H313.941V8.54545H343.344V64.1562H344.623C347.085 57.7169 351.062 52.6742 356.555 49.0284C362.047 45.3352 368.936 43.4886 377.222 43.4886C384.798 43.4886 391.403 45.1458 397.038 48.4602C402.719 51.7273 407.123 56.4384 410.248 62.5938C413.42 68.7017 414.983 76.017 414.935 84.5398V154H384.68V89.9375C384.727 83.214 383.022 77.982 379.566 74.2415C376.157 70.5009 371.375 68.6307 365.219 68.6307C361.1 68.6307 357.454 69.5066 354.282 71.2585C351.157 73.0104 348.695 75.5672 346.896 78.929C345.144 82.2434 344.244 86.2443 344.197 90.9318ZM469.854 156.06C462.893 156.06 456.691 154.852 451.246 152.438C445.801 149.975 441.492 146.353 438.32 141.571C435.195 136.741 433.632 130.728 433.632 123.531C433.632 117.471 434.745 112.381 436.97 108.261C439.196 104.142 442.226 100.828 446.061 98.3182C449.896 95.8087 454.252 93.9148 459.129 92.6364C464.054 91.358 469.214 90.4583 474.612 89.9375C480.957 89.2746 486.071 88.6591 489.953 88.0909C493.836 87.4754 496.653 86.5758 498.405 85.392C500.157 84.2083 501.033 82.4564 501.033 80.1364V79.7102C501.033 75.2121 499.612 71.732 496.771 69.2699C493.978 66.8078 490 65.5767 484.839 65.5767C479.394 65.5767 475.062 66.7841 471.842 69.1989C468.623 71.5663 466.492 74.5492 465.45 78.1477L437.467 75.875C438.888 69.2462 441.681 63.517 445.848 58.6875C450.015 53.8106 455.389 50.0701 461.97 47.4659C468.599 44.8144 476.269 43.4886 484.982 43.4886C491.042 43.4886 496.842 44.1989 502.382 45.6193C507.969 47.0398 512.917 49.2415 517.226 52.2244C521.582 55.2074 525.015 59.0426 527.524 63.7301C530.034 68.3703 531.288 73.9337 531.288 80.4205V154H502.595V138.872H501.743C499.991 142.281 497.647 145.288 494.712 147.892C491.776 150.449 488.249 152.461 484.129 153.929C480.01 155.349 475.251 156.06 469.854 156.06ZM478.518 135.179C482.969 135.179 486.899 134.303 490.308 132.551C493.717 130.752 496.393 128.337 498.334 125.307C500.275 122.277 501.246 118.844 501.246 115.009V103.432C500.299 104.047 498.997 104.616 497.339 105.136C495.73 105.61 493.907 106.06 491.871 106.486C489.835 106.865 487.799 107.22 485.763 107.551C483.727 107.835 481.88 108.096 480.223 108.332C476.672 108.853 473.571 109.682 470.919 110.818C468.268 111.955 466.208 113.493 464.74 115.435C463.272 117.329 462.538 119.696 462.538 122.537C462.538 126.656 464.03 129.805 467.013 131.983C470.043 134.114 473.878 135.179 478.518 135.179ZM585.017 90.9318V154H554.761V44.9091H583.597V64.1562H584.875C587.29 57.8116 591.338 52.7926 597.02 49.0994C602.702 45.3589 609.591 43.4886 617.688 43.4886C625.263 43.4886 631.868 45.1458 637.503 48.4602C643.137 51.7746 647.517 56.5095 650.642 62.6648C653.767 68.7727 655.33 76.0644 655.33 84.5398V154H625.074V89.9375C625.121 83.2614 623.417 78.053 619.96 74.3125C616.504 70.5246 611.745 68.6307 605.685 68.6307C601.613 68.6307 598.014 69.5066 594.889 71.2585C591.812 73.0104 589.397 75.5672 587.645 78.929C585.94 82.2434 585.064 86.2443 585.017 90.9318ZM737.201 44.9091V67.6364H671.505V44.9091H737.201ZM686.42 18.7727H716.675V120.477C716.675 123.271 717.102 125.449 717.954 127.011C718.806 128.527 719.99 129.592 721.505 130.207C723.067 130.823 724.867 131.131 726.903 131.131C728.323 131.131 729.744 131.012 731.164 130.776C732.585 130.491 733.674 130.278 734.431 130.136L739.19 152.651C737.674 153.124 735.544 153.669 732.798 154.284C730.051 154.947 726.713 155.349 722.783 155.491C715.492 155.776 709.1 154.805 703.607 152.58C698.162 150.354 693.924 146.898 690.894 142.21C687.864 137.523 686.372 131.604 686.42 124.455V18.7727ZM803.767 154V8.54545H862.006C872.706 8.54545 881.632 10.1316 888.781 13.304C895.931 16.4763 901.305 20.8797 904.903 26.5142C908.502 32.1013 910.301 38.5407 910.301 45.8324C910.301 51.5142 909.165 56.5095 906.892 60.8182C904.619 65.0795 901.494 68.5833 897.517 71.3295C893.587 74.0284 889.089 75.946 884.023 77.0824V78.5028C889.563 78.7396 894.747 80.3021 899.577 83.1903C904.454 86.0786 908.407 90.1269 911.438 95.3352C914.468 100.496 915.983 106.652 915.983 113.801C915.983 121.519 914.065 128.408 910.23 134.469C906.442 140.482 900.831 145.241 893.398 148.744C885.964 152.248 876.802 154 865.912 154H803.767ZM834.52 128.858H859.591C868.161 128.858 874.411 127.224 878.341 123.957C882.271 120.643 884.236 116.24 884.236 110.747C884.236 106.723 883.265 103.171 881.324 100.094C879.383 97.0161 876.613 94.6013 873.014 92.8494C869.463 91.0975 865.225 90.2216 860.301 90.2216H834.52V128.858ZM834.52 69.4119H857.318C861.532 69.4119 865.273 68.678 868.54 67.2102C871.854 65.6951 874.458 63.5644 876.352 60.8182C878.294 58.072 879.264 54.7812 879.264 50.946C879.264 45.6903 877.394 41.4527 873.653 38.233C869.96 35.0133 864.705 33.4034 857.886 33.4034H834.52V69.4119ZM966.533 156.06C959.573 156.06 953.371 154.852 947.925 152.438C942.48 149.975 938.172 146.353 934.999 141.571C931.874 136.741 930.312 130.728 930.312 123.531C930.312 117.471 931.424 112.381 933.65 108.261C935.875 104.142 938.906 100.828 942.741 98.3182C946.576 95.8087 950.932 93.9148 955.809 92.6364C960.733 91.358 965.894 90.4583 971.292 89.9375C977.637 89.2746 982.75 88.6591 986.633 88.0909C990.515 87.4754 993.333 86.5758 995.085 85.392C996.836 84.2083 997.712 82.4564 997.712 80.1364V79.7102C997.712 75.2121 996.292 71.732 993.451 69.2699C990.657 66.8078 986.68 65.5767 981.519 65.5767C976.074 65.5767 971.742 66.7841 968.522 69.1989C965.302 71.5663 963.172 74.5492 962.13 78.1477L934.147 75.875C935.567 69.2462 938.361 63.517 942.528 58.6875C946.694 53.8106 952.068 50.0701 958.65 47.4659C965.279 44.8144 972.949 43.4886 981.661 43.4886C987.722 43.4886 993.522 44.1989 999.062 45.6193C1004.65 47.0398 1009.6 49.2415 1013.91 52.2244C1018.26 55.2074 1021.69 59.0426 1024.2 63.7301C1026.71 68.3703 1027.97 73.9337 1027.97 80.4205V154H999.275V138.872H998.423C996.671 142.281 994.327 145.288 991.391 147.892C988.456 150.449 984.928 152.461 980.809 153.929C976.69 155.349 971.931 156.06 966.533 156.06ZM975.198 135.179C979.649 135.179 983.579 134.303 986.988 132.551C990.397 130.752 993.072 128.337 995.013 125.307C996.955 122.277 997.925 118.844 997.925 115.009V103.432C996.978 104.047 995.676 104.616 994.019 105.136C992.409 105.61 990.586 106.06 988.55 106.486C986.514 106.865 984.478 107.22 982.442 107.551C980.406 107.835 978.56 108.096 976.903 108.332C973.352 108.853 970.25 109.682 967.599 110.818C964.947 111.955 962.888 113.493 961.42 115.435C959.952 117.329 959.218 119.696 959.218 122.537C959.218 126.656 960.71 129.805 963.692 131.983C966.723 134.114 970.558 135.179 975.198 135.179ZM1050.87 154V135.96L1104.28 69.8381V69.0568H1052.72V44.9091H1140.72V64.5824L1090.57 129.071V129.852H1142.56V154H1050.87ZM1165.13 154V135.96L1218.54 69.8381V69.0568H1166.98V44.9091H1254.97V64.5824L1204.83 129.071V129.852H1256.82V154H1165.13ZM1311.06 156.06C1304.1 156.06 1297.9 154.852 1292.46 152.438C1287.01 149.975 1282.7 146.353 1279.53 141.571C1276.41 136.741 1274.84 130.728 1274.84 123.531C1274.84 117.471 1275.96 112.381 1278.18 108.261C1280.41 104.142 1283.44 100.828 1287.27 98.3182C1291.11 95.8087 1295.46 93.9148 1300.34 92.6364C1305.26 91.358 1310.43 90.4583 1315.82 89.9375C1322.17 89.2746 1327.28 88.6591 1331.16 88.0909C1335.05 87.4754 1337.86 86.5758 1339.62 85.392C1341.37 84.2083 1342.24 82.4564 1342.24 80.1364V79.7102C1342.24 75.2121 1340.82 71.732 1337.98 69.2699C1335.19 66.8078 1331.21 65.5767 1326.05 65.5767C1320.61 65.5767 1316.27 66.7841 1313.05 69.1989C1309.83 71.5663 1307.7 74.5492 1306.66 78.1477L1278.68 75.875C1280.1 69.2462 1282.89 63.517 1287.06 58.6875C1291.23 53.8106 1296.6 50.0701 1303.18 47.4659C1309.81 44.8144 1317.48 43.4886 1326.19 43.4886C1332.25 43.4886 1338.05 44.1989 1343.59 45.6193C1349.18 47.0398 1354.13 49.2415 1358.44 52.2244C1362.79 55.2074 1366.23 59.0426 1368.74 63.7301C1371.24 68.3703 1372.5 73.9337 1372.5 80.4205V154H1343.81V138.872H1342.95C1341.2 142.281 1338.86 145.288 1335.92 147.892C1332.99 150.449 1329.46 152.461 1325.34 153.929C1321.22 155.349 1316.46 156.06 1311.06 156.06ZM1319.73 135.179C1324.18 135.179 1328.11 134.303 1331.52 132.551C1334.93 130.752 1337.6 128.337 1339.54 125.307C1341.49 122.277 1342.46 118.844 1342.46 115.009V103.432C1341.51 104.047 1340.21 104.616 1338.55 105.136C1336.94 105.61 1335.12 106.06 1333.08 106.486C1331.05 106.865 1329.01 107.22 1326.97 107.551C1324.94 107.835 1323.09 108.096 1321.43 108.332C1317.88 108.853 1314.78 109.682 1312.13 110.818C1309.48 111.955 1307.42 113.493 1305.95 115.435C1304.48 117.329 1303.75 119.696 1303.75 122.537C1303.75 126.656 1305.24 129.805 1308.22 131.983C1311.25 134.114 1315.09 135.179 1319.73 135.179ZM1436.17 155.776C1427.89 155.776 1420.38 153.645 1413.66 149.384C1406.98 145.075 1401.68 138.754 1397.75 130.42C1393.87 122.04 1391.92 111.765 1391.92 99.5966C1391.92 87.0966 1393.94 76.7036 1397.96 68.4176C1401.99 60.0843 1407.34 53.858 1414.01 49.7386C1420.74 45.572 1428.1 43.4886 1436.1 43.4886C1442.21 43.4886 1447.3 44.5303 1451.37 46.6136C1455.49 48.6496 1458.8 51.2064 1461.31 54.2841C1463.87 57.3144 1465.81 60.2973 1467.14 63.233H1468.06V8.54545H1498.25V154H1468.42V136.528H1467.14C1465.72 139.559 1463.7 142.565 1461.1 145.548C1458.54 148.484 1455.21 150.922 1451.09 152.864C1447.01 154.805 1442.04 155.776 1436.17 155.776ZM1445.76 131.699C1450.64 131.699 1454.76 130.373 1458.12 127.722C1461.53 125.023 1464.13 121.259 1465.93 116.429C1467.78 111.599 1468.7 105.941 1468.7 99.4545C1468.7 92.9678 1467.8 87.3333 1466 82.5511C1464.2 77.7689 1461.6 74.0758 1458.19 71.4716C1454.78 68.8674 1450.64 67.5653 1445.76 67.5653C1440.79 67.5653 1436.6 68.9148 1433.19 71.6136C1429.78 74.3125 1427.2 78.053 1425.45 82.8352C1423.69 87.6174 1422.82 93.1572 1422.82 99.4545C1422.82 105.799 1423.69 111.41 1425.45 116.287C1427.25 121.116 1429.83 124.904 1433.19 127.651C1436.6 130.349 1440.79 131.699 1445.76 131.699Z" fill="#DDDDDE"/>
</svg>
