<svg width="131" height="48" viewBox="0 0 131 48" fill="none" xmlns="http://www.w3.org/2000/svg">
<mask id="mask0_1490_726" style="mask-type:luminance" maskUnits="userSpaceOnUse" x="0" y="0" width="131" height="48">
<path d="M130.207 0H0V48H130.207V0Z" fill="white"/>
</mask>
<g mask="url(#mask0_1490_726)">
<path d="M38.3628 32.8192H26.5587L19.6302 22.155L12.7016 32.8192H0.897461L12.381 16.4979L1.15401 0.502075H12.9582L19.6302 10.7108L26.3022 0.502075H38.0417L26.8793 16.4329L38.3628 32.8192Z" fill="#F05019"/>
<path d="M49.4166 32.819H39.1523V14.2224C39.1523 9.84405 40.6492 6.46281 43.6428 4.07864C46.6795 1.69442 50.999 0.502313 56.6017 0.502313V9.15048C51.8122 9.15048 49.4166 11.1663 49.4166 15.1977V32.819ZM73.0315 -0.147949C78.0781 -0.147949 82.2271 1.43434 85.4773 4.59881C88.7275 7.76328 90.3529 11.7732 90.3529 16.6283V32.819H80.0886V28.7876C77.9932 31.9087 74.7209 33.4695 70.2729 33.4695C66.21 33.4695 62.7888 31.9307 60.0086 28.8527C57.2285 25.7746 55.8387 21.8735 55.8387 17.1484C55.8387 12.0766 57.4426 7.93674 60.6503 4.72885C63.9005 1.47765 68.0274 -0.147949 73.0315 -0.147949ZM68.2199 22.2853C69.5457 23.7161 71.2136 24.4311 73.2241 24.4311C75.2346 24.4311 76.8809 23.694 78.1637 22.2203C79.447 20.7465 80.0886 18.8824 80.0886 16.6283C80.0886 14.3741 79.447 12.5317 78.1637 11.1012C76.8809 9.62733 75.2346 8.8904 73.2241 8.8904C71.2136 8.8904 69.5457 9.62733 68.2199 11.1012C66.9372 12.5317 66.2955 14.3741 66.2955 16.6283C66.2955 18.9258 66.9372 20.8115 68.2199 22.2853Z" fill="#344054"/>
<path d="M88.71 0.306763H98.9847C98.9847 0.306763 113.268 32.574 115.273 32.574C117.278 32.574 111.514 32.574 106.252 32.574C100.989 32.574 88.71 0.306763 88.71 0.306763Z" fill="#344054"/>
<path d="M130.313 0.815308H118.785L108.009 24.4349C108.009 24.4349 96.9832 49.087 97.2337 48.0548H107.759L108.968 45.5229L119.036 24.4349L130.313 0.815308Z" fill="#344054"/>
</g>
</svg>
